PathFileType	4	(X/Y/Z)	Kaydara																																																																																																																									
DataRate	CameraRate	NumFrames	NumMarkers	Units	OrigDataRate	OrigDataStartFrame	OrigNumFrames																																																																																																																					
30	30	6	41	mm	30	97	258																																																																																																																					
Frame#	Time	SALE_LFHD			SALE_RFHD			SALE_LBHD			SALE_RBHD			SALE_LFTShould			SALE_RFTShould			SALE_LRRShould			SALE_RRRShould			SALE_T10			SALE_STRN			SALE_TRUN			SALE_LSHO			SALE_LUPA			SALE_LELB			SALE_LFRM			SALE_LWRA			SALE_LWRB			SALE_LFIN			SALE_RSHO			SALE_RUPA			SALE_RELB			SALE_RFRM			SALE_RWRB			SALE_RFIN			SALE_LFWT			SALE_RFWT			SALE_LBWT			SALE_RBWT			SALE_LTHI			SALE_LKNE			SALE_RWRA			SALE_LSHN			SALE_LANK			SALE_LHEE			SALE_LTOE			SALE_RTHI			SALE_RKNE			SALE_RSHN			SALE_RANK			SALE_RHEE			SALE_RTOE		
		X1	Y1	Z1	X2	Y2	Z2	X3	Y3	Z3	X4	Y4	Z4	X5	Y5	Z5	X6	Y6	Z6	X7	Y7	Z7	X8	Y8	Z8	X9	Y9	Z9	X10	Y10	Z10	X11	Y11	Z11	X12	Y12	Z12	X13	Y13	Z13	X14	Y14	Z14	X15	Y15	Z15	X16	Y16	Z16	X17	Y17	Z17	X18	Y18	Z18	X19	Y19	Z19	X20	Y20	Z20	X21	Y21	Z21	X22	Y22	Z22	X23	Y23	Z23	X24	Y24	Z24	X25	Y25	Z25	X26	Y26	Z26	X27	Y27	Z27	X28	Y28	Z28	X29	Y29	Z29	X30	Y30	Z30	X31	Y31	Z31	X32	Y32	Z32	X33	Y33	Z33	X34	Y34	Z34	X35	Y35	Z35	X36	Y36	Z36	X37	Y37	Z37	X38	Y38	Z38	X39	Y39	Z39	X40	Y40	Z40	X41	Y41	Z41
																																																																																																																												
97	3.21	237.01967	1587.83432	-1501.87775	106.40491	1590.06393	-1496.47186	229.71781	1636.21811	-1624.65805	104.08335	1634.98779	-1614.05594	238.70167	1367.76031	-1619.17908	97.18672	1368.24295	-1613.26263	228.72311	1435.89386	-1725.4422	78.3347	1441.49994	-1711.62689	145.48874	1291.80679	-1800.90759	163.29746	1293.23334	-1575.09613	160.16552	1204.22691	-1541.06064	351.33064	1397.03201	-1691.19125	382.38976	1181.8264	-1727.19131	358.96801	1074.20677	-1752.91733	389.54258	967.06635	-1737.17041	338.3363	824.99001	-1669.84711	393.8348	819.59663	-1722.84302	398.46752	773.16429	-1677.49191	-12.32237	1404.12125	-1667.48184	-55.902	1180.86655	-1743.4491	-81.19073	1077.64793	-1702.84927	-75.27786	963.75137	-1716.70639	-88.35104	825.14687	-1673.87695	-91.44077	785.78011	-1616.73355	280.6727	977.82036	-1604.91486	2.06904	953.30566	-1620.03662	228.83028	1027.15736	-1778.461	51.3846	1018.03787	-1786.54526	287.7862	665.43076	-1737.03583	269.21991	505.15755	-1640.95993	-37.85929	836.95389	-1619.35486	256.28788	307.51102	-1618.67569	239.6011	119.43147	-1638.358	198.72196	66.95884	-1695.17822	206.08551	86.01522	-1499.3605	20.06684	702.42661	-1790.32562	20.20771	536.43181	-1697.90131	67.45706	353.40019	-1806.49765	21.96748	203.7109	-2018.40271	37.12559	74.13095	-1969.60022	69.6901	203.01788	-2105.92697
98	3.243	243.07673	1588.97766	-1484.28711	112.5083	1591.94244	-1479.09622	236.25154	1635.02258	-1608.09555	110.57202	1634.60297	-1597.60803	243.7863	1365.71518	-1597.98218	102.77565	1366.47186	-1593.965	236.0684	1434.18793	-1704.48807	85.28374	1440.37384	-1692.64755	153.06149	1290.23209	-1780.82047	167.87577	1291.15677	-1554.60052	163.97074	1202.29507	-1520.39291	357.94529	1394.64813	-1667.75284	390.15209	1178.5022	-1698.87695	368.07896	1070.43594	-1723.64578	397.84916	963.69217	-1704.48532	344.48666	823.75351	-1634.18289	401.82259	816.89476	-1685.52338	405.13912	772.061	-1638.17139	-6.08026	1402.85934	-1649.57916	-47.9455	1178.33214	-1724.01138	-74.68184	1076.38672	-1682.08572	-70.37461	962.12967	-1694.18259	-85.31386	824.22668	-1650.92453	-89.43095	785.90759	-1592.64038	283.5174	978.33694	-1583.33603	6.15051	950.42381	-1599.68903	231.61678	1025.90858	-1757.43057	54.24914	1011.9593	-1767.854	294.56186	668.22044	-1719.9176	275.00168	505.41603	-1629.45801	-35.35735	836.21788	-1594.80194	260.24868	306.82755	-1612.57263	241.87212	119.26786	-1637.44827	200.74492	67.0543	-1695.33249	206.77544	85.63319	-1499.29306	24.37587	688.40858	-1752.9892	17.50165	530.5999	-1648.41431	65.04867	349.28082	-1760.52017	22.10379	217.57851	-1984.70917	36.57692	80.22023	-1953.45276	70.26525	227.95452	-2069.29916
99	3.277	248.56569	1589.0506	-1465.92682	117.90531	1593.42636	-1460.67642	242.115	1633.69553	-1590.25711	116.45672	1634.19403	-1579.91928	248.08907	1364.272	-1577.5058	107.2216	1365.298	-1575.17914	242.42655	1432.83905	-1684.03824	91.09757	1439.70657	-1673.94958	159.77277	1289.2099	-1761.57166	171.43808	1289.26208	-1535.08759	166.75055	1200.41489	-1501.06201	363.47389	1392.62222	-1645.08881	397.44278	1175.48317	-1669.68567	377.06013	1066.58478	-1692.65015	406.21498	960.72449	-1669.9234	351.06293	822.69806	-1597.41791	410.19337	814.68826	-1646.81259	412.13291	771.33339	-1598.04214	-0.84371	1401.88873	-1631.85974	-43.30058	1176.50284	-1704.56116	-70.97209	1075.52124	-1660.24551	-67.57017	961.26869	-1672.50122	-82.99123	823.61809	-1628.40225	-87.38675	785.9272	-1570.10651	285.58916	978.61198	-1561.99188	8.68464	949.12163	-1581.64703	235.92615	1024.29344	-1737.42096	58.48782	1007.12128	-1750.48752	299.64163	670.59288	-1704.94675	278.45999	505.40329	-1618.86902	-32.69183	835.73402	-1572.71988	262.9563	306.37207	-1607.01996	243.8446	119.43505	-1636.65329	202.71605	67.29979	-1695.52811	207.65205	85.68935	-1499.53705	27.51027	679.54659	-1716.36978	15.1653	529.7715	-1598.82813	64.28061	348.97514	-1712.05399	24.62646	229.70516	-1942.42981	32.4902	91.09425	-1916.74408	76.5115	242.20469	-2024.25278
100	3.31	253.27541	1588.68134	-1446.59637	122.83677	1593.83713	-1441.53458	247.31974	1633.31802	-1570.96664	121.6185	1634.72458	-1560.68054	251.11771	1363.81088	-1557.58453	110.59471	1365.34271	-1556.82861	247.57141	1432.96753	-1664.12491	96.07599	1440.1503	-1655.8078	165.50825	1289.776	-1743.03192	174.14061	1289.00879	-1516.36261	168.78674	1200.14015	-1482.4205	368.00678	1392.23358	-1623.36914	403.60889	1174.51279	-1640.896	384.8217	1064.60434	-1660.57831	414.16721	960.10017	-1634.54025	356.95175	822.96135	-1560.61493	418.45268	814.71924	-1607.38617	419.31175	772.3764	-1557.97089	3.5475	1402.34772	-1614.85321	-41.08968	1176.40236	-1685.49637	-68.2058	1075.82359	-1641.62018	-64.83028	961.82533	-1653.61099	-81.56116	824.63181	-1608.23563	-85.77505	787.20169	-1549.69086	288.09193	978.8311	-1542.51678	11.52127	950.92659	-1563.14453	240.44764	1024.06937	-1718.19183	62.84631	1006.39969	-1732.37717	300.91543	672.57523	-1692.54593	279.6983	505.41924	-1609.4809	-30.91506	836.54099	-1553.11035	263.82425	306.04156	-1602.34726	244.29506	119.7864	-1636.04111	203.01891	67.71191	-1695.33936	208.68805	85.73907	-1499.61334	28.88719	677.6429	-1683.52081	14.20075	534.29039	-1551.50711	63.97168	351.09123	-1659.24652	27.5085	234.03622	-1890.65598	27.94258	97.85037	-1862.41608	83.2059	243.44275	-1972.59415
101	3.343	257.25611	1588.50082	-1426.44302	126.79074	1594.06693	-1421.69876	251.72281	1634.20654	-1550.44098	126.04741	1636.3205	-1540.31616	254.53186	1365.36392	-1538.36914	113.80696	1367.11166	-1538.82706	251.67183	1434.34494	-1644.55948	100.31137	1441.71661	-1637.77588	170.39331	1291.36368	-1724.4223	176.86207	1290.6871	-1497.81204	171.29044	1201.85097	-1463.72818	371.6436	1393.93311	-1602.57706	408.5627	1176.16486	-1612.966	391.31275	1065.34874	-1628.83591	421.26972	962.13943	-1599.4989	363.55743	826.23978	-1523.4407	426.22967	817.55257	-1568.36243	426.46469	776.38687	-1518.19809	7.27061	1404.34647	-1597.82898	-36.84963	1178.54645	-1669.086	-65.49805	1077.96921	-1625.75226	-61.80142	964.02809	-1637.06055	-80.85025	827.36855	-1591.34323	-85.4506	789.65263	-1532.44995	292.29189	978.55278	-1525.34943	15.29521	954.6492	-1542.87628	243.00074	1024.56596	-1700.28961	65.28603	1008.58955	-1713.14087	298.12487	673.83652	-1680.49545	278.8092	505.45815	-1600.31158	-30.92653	839.21089	-1534.93423	263.52865	305.7361	-1597.94418	244.00486	120.42113	-1635.55405	202.62688	68.35483	-1695.22415	210.0572	85.86703	-1499.67453	27.56334	678.56689	-1650.96436	15.43227	542.73426	-1507.3204	65.01354	354.57306	-1605.49881	30.20737	228.86654	-1833.23746	25.2374	98.94059	-1792.71347	87.00208	230.67888	-1916.548
102	3.377	260.5862	1588.84491	-1405.84961	130.22978	1594.76486	-1401.16089	255.29648	1635.95016	-1529.35379	129.68966	1638.31848	-1519.33868	257.30843	1367.79739	-1518.8031	116.9662	1369.44778	-1519.99405	255.09073	1436.57837	-1625.11993	103.87097	1443.8002	-1618.90106	174.2507	1293.54431	-1705.37933	180.03637	1293.21182	-1478.58353	174.48606	1204.18884	-1445.02228	374.74194	1397.00836	-1582.59491	412.72495	1179.56505	-1586.85349	396.48678	1068.07495	-1599.08142	427.23873	966.23032	-1565.98709	370.22091	832.2982	-1485.88303	432.72697	822.02271	-1530.2269	433.31825	783.04626	-1478.694	10.52725	1406.76773	-1579.44962	-31.01439	1181.77277	-1653.81241	-62.91395	1081.13876	-1612.24915	-58.41522	966.70845	-1621.8364	-80.79634	830.6881	-1576.62827	-86.91371	792.49657	-1517.78122	296.69096	978.19595	-1509.83368	19.46734	959.33807	-1521.9873	243.6166	1025.06569	-1683.60794	65.85437	1011.43654	-1693.73581	294.32766	675.12436	-1669.12369	277.95128	505.56702	-1591.58585	-32.4776	842.47551	-1517.66006	263.02444	305.62185	-1593.56857	243.51448	121.13369	-1634.94446	201.99266	69.23236	-1694.88861	211.17599	85.7344	-1499.51202	23.49598	681.94626	-1619.73709	19.17562	553.22556	-1466.67114	68.70791	358.19492	-1552.28073	32.14598	214.27008	-1769.1478	25.74732	94.75176	-1711.16638	88.09389	205.62078	-1854.54285
